<mxfile host="app.diagrams.net" modified="2023-05-11T13:50:34.445Z" agent="Mozilla/5.0 (Windows NT 10.0; Win64; x64) AppleWebKit/537.36 (KHTML, like Gecko) Chrome/113.0.0.0 Safari/537.36 Edg/113.0.1774.35" etag="eiT9x1RgX76zcUHO8OLH" version="21.2.9" type="github">
  <diagram id="prtHgNgQTEPvFCAcTncT" name="Page-1">
    <mxGraphModel dx="1021" dy="609" grid="1" gridSize="10" guides="1" tooltips="1" connect="1" arrows="1" fold="1" page="1" pageScale="1" pageWidth="827" pageHeight="1169" math="0" shadow="0">
      <root>
        <mxCell id="0" />
        <mxCell id="1" parent="0" />
        <mxCell id="mmSOd9hUwZwq9OaD_1R2-12" style="rounded=0;orthogonalLoop=1;jettySize=auto;html=1;entryX=-0.029;entryY=0.132;entryDx=0;entryDy=0;entryPerimeter=0;" edge="1" parent="1" source="mmSOd9hUwZwq9OaD_1R2-1" target="mmSOd9hUwZwq9OaD_1R2-6">
          <mxGeometry relative="1" as="geometry" />
        </mxCell>
        <mxCell id="mmSOd9hUwZwq9OaD_1R2-1" value="&lt;b&gt;&lt;font style=&quot;font-size: 15px;&quot;&gt;Input Register&lt;/font&gt;&lt;/b&gt;" style="rounded=0;whiteSpace=wrap;html=1;fillColor=#dae8fc;strokeColor=#6c8ebf;" vertex="1" parent="1">
          <mxGeometry x="260" y="110" width="110" height="50" as="geometry" />
        </mxCell>
        <mxCell id="mmSOd9hUwZwq9OaD_1R2-7" style="rounded=0;orthogonalLoop=1;jettySize=auto;html=1;exitX=0.75;exitY=0;exitDx=0;exitDy=0;startArrow=classic;startFill=1;entryX=0.727;entryY=1;entryDx=0;entryDy=0;entryPerimeter=0;" edge="1" parent="1" source="mmSOd9hUwZwq9OaD_1R2-4" target="mmSOd9hUwZwq9OaD_1R2-1">
          <mxGeometry relative="1" as="geometry">
            <mxPoint x="340" y="170" as="targetPoint" />
          </mxGeometry>
        </mxCell>
        <mxCell id="mmSOd9hUwZwq9OaD_1R2-8" style="rounded=0;orthogonalLoop=1;jettySize=auto;html=1;exitX=0.25;exitY=0;exitDx=0;exitDy=0;startArrow=classic;startFill=1;entryX=0.182;entryY=1.067;entryDx=0;entryDy=0;entryPerimeter=0;" edge="1" parent="1" source="mmSOd9hUwZwq9OaD_1R2-4" target="mmSOd9hUwZwq9OaD_1R2-1">
          <mxGeometry relative="1" as="geometry">
            <mxPoint x="280" y="170" as="targetPoint" />
          </mxGeometry>
        </mxCell>
        <mxCell id="mmSOd9hUwZwq9OaD_1R2-36" style="rounded=0;orthogonalLoop=1;jettySize=auto;html=1;exitX=1;exitY=0.25;exitDx=0;exitDy=0;entryX=-0.011;entryY=0.698;entryDx=0;entryDy=0;entryPerimeter=0;" edge="1" parent="1" source="mmSOd9hUwZwq9OaD_1R2-4" target="mmSOd9hUwZwq9OaD_1R2-6">
          <mxGeometry relative="1" as="geometry">
            <mxPoint x="460" y="288" as="targetPoint" />
          </mxGeometry>
        </mxCell>
        <mxCell id="mmSOd9hUwZwq9OaD_1R2-4" value="&lt;b style=&quot;font-size: 14px;&quot;&gt;16 x 16&lt;br&gt;Register File&lt;/b&gt;" style="rounded=0;whiteSpace=wrap;html=1;fillColor=#dae8fc;strokeColor=#6c8ebf;" vertex="1" parent="1">
          <mxGeometry x="250" y="260" width="120" height="110" as="geometry" />
        </mxCell>
        <mxCell id="mmSOd9hUwZwq9OaD_1R2-38" style="edgeStyle=orthogonalEdgeStyle;rounded=0;orthogonalLoop=1;jettySize=auto;html=1;exitX=1;exitY=0.5;exitDx=0;exitDy=0;entryX=-0.014;entryY=0.88;entryDx=0;entryDy=0;entryPerimeter=0;" edge="1" parent="1" source="mmSOd9hUwZwq9OaD_1R2-6" target="mmSOd9hUwZwq9OaD_1R2-4">
          <mxGeometry relative="1" as="geometry">
            <mxPoint x="200" y="360" as="targetPoint" />
            <Array as="points">
              <mxPoint x="640" y="235" />
              <mxPoint x="640" y="400" />
              <mxPoint x="201" y="400" />
              <mxPoint x="201" y="357" />
            </Array>
          </mxGeometry>
        </mxCell>
        <mxCell id="mmSOd9hUwZwq9OaD_1R2-6" value="&lt;b style=&quot;font-size: 15px;&quot;&gt;Combinational&amp;nbsp;&lt;br&gt;Logic&lt;/b&gt;" style="rounded=0;whiteSpace=wrap;html=1;fillColor=#dae8fc;strokeColor=#6c8ebf;" vertex="1" parent="1">
          <mxGeometry x="470" y="100" width="130" height="270" as="geometry" />
        </mxCell>
        <mxCell id="mmSOd9hUwZwq9OaD_1R2-15" value="" style="endArrow=classic;html=1;rounded=0;" edge="1" parent="1">
          <mxGeometry width="50" height="50" relative="1" as="geometry">
            <mxPoint x="150" y="135" as="sourcePoint" />
            <mxPoint x="260" y="134.5" as="targetPoint" />
          </mxGeometry>
        </mxCell>
        <mxCell id="mmSOd9hUwZwq9OaD_1R2-16" value="&lt;b&gt;CTRL&lt;/b&gt;" style="text;html=1;strokeColor=none;fillColor=none;align=center;verticalAlign=middle;whiteSpace=wrap;rounded=0;" vertex="1" parent="1">
          <mxGeometry x="160" y="100" width="60" height="30" as="geometry" />
        </mxCell>
        <mxCell id="mmSOd9hUwZwq9OaD_1R2-17" value="" style="endArrow=none;html=1;rounded=0;strokeWidth=2;" edge="1" parent="1">
          <mxGeometry width="50" height="50" relative="1" as="geometry">
            <mxPoint x="190" y="200" as="sourcePoint" />
            <mxPoint x="280" y="200" as="targetPoint" />
          </mxGeometry>
        </mxCell>
        <mxCell id="mmSOd9hUwZwq9OaD_1R2-18" value="" style="endArrow=none;html=1;rounded=0;strokeWidth=2;" edge="1" parent="1">
          <mxGeometry width="50" height="50" relative="1" as="geometry">
            <mxPoint x="340" y="200" as="sourcePoint" />
            <mxPoint x="410" y="200" as="targetPoint" />
          </mxGeometry>
        </mxCell>
        <mxCell id="mmSOd9hUwZwq9OaD_1R2-22" value="&lt;b&gt;Reset&lt;/b&gt;" style="text;html=1;strokeColor=none;fillColor=none;align=center;verticalAlign=middle;whiteSpace=wrap;rounded=0;" vertex="1" parent="1">
          <mxGeometry x="354" y="170" width="60" height="30" as="geometry" />
        </mxCell>
        <mxCell id="mmSOd9hUwZwq9OaD_1R2-23" value="&lt;b&gt;Clock&lt;/b&gt;" style="text;html=1;strokeColor=none;fillColor=none;align=center;verticalAlign=middle;whiteSpace=wrap;rounded=0;" vertex="1" parent="1">
          <mxGeometry x="190" y="174" width="60" height="30" as="geometry" />
        </mxCell>
        <mxCell id="mmSOd9hUwZwq9OaD_1R2-24" value="" style="endArrow=classic;html=1;rounded=0;" edge="1" parent="1">
          <mxGeometry width="50" height="50" relative="1" as="geometry">
            <mxPoint x="140" y="280.5" as="sourcePoint" />
            <mxPoint x="250" y="280" as="targetPoint" />
          </mxGeometry>
        </mxCell>
        <mxCell id="mmSOd9hUwZwq9OaD_1R2-25" value="" style="endArrow=classic;html=1;rounded=0;" edge="1" parent="1">
          <mxGeometry width="50" height="50" relative="1" as="geometry">
            <mxPoint x="140" y="305" as="sourcePoint" />
            <mxPoint x="250" y="304.5" as="targetPoint" />
          </mxGeometry>
        </mxCell>
        <mxCell id="mmSOd9hUwZwq9OaD_1R2-26" value="" style="endArrow=classic;html=1;rounded=0;" edge="1" parent="1">
          <mxGeometry width="50" height="50" relative="1" as="geometry">
            <mxPoint x="140" y="330.5" as="sourcePoint" />
            <mxPoint x="250" y="330" as="targetPoint" />
          </mxGeometry>
        </mxCell>
        <mxCell id="mmSOd9hUwZwq9OaD_1R2-30" value="Ra" style="text;html=1;strokeColor=none;fillColor=none;align=center;verticalAlign=middle;whiteSpace=wrap;rounded=0;" vertex="1" parent="1">
          <mxGeometry x="129" y="255" width="60" height="30" as="geometry" />
        </mxCell>
        <mxCell id="mmSOd9hUwZwq9OaD_1R2-31" value="Rb" style="text;html=1;strokeColor=none;fillColor=none;align=center;verticalAlign=middle;whiteSpace=wrap;rounded=0;" vertex="1" parent="1">
          <mxGeometry x="130" y="280" width="60" height="30" as="geometry" />
        </mxCell>
        <mxCell id="mmSOd9hUwZwq9OaD_1R2-33" value="Rd" style="text;html=1;strokeColor=none;fillColor=none;align=center;verticalAlign=middle;whiteSpace=wrap;rounded=0;" vertex="1" parent="1">
          <mxGeometry x="131" y="306" width="60" height="30" as="geometry" />
        </mxCell>
        <mxCell id="mmSOd9hUwZwq9OaD_1R2-37" style="rounded=0;orthogonalLoop=1;jettySize=auto;html=1;exitX=1;exitY=0.25;exitDx=0;exitDy=0;entryX=-0.011;entryY=0.698;entryDx=0;entryDy=0;entryPerimeter=0;" edge="1" parent="1">
          <mxGeometry relative="1" as="geometry">
            <mxPoint x="370" y="350" as="sourcePoint" />
            <mxPoint x="469" y="350" as="targetPoint" />
          </mxGeometry>
        </mxCell>
        <mxCell id="mmSOd9hUwZwq9OaD_1R2-39" value="&lt;b&gt;&lt;font style=&quot;font-size: 14px;&quot;&gt;RES&lt;/font&gt;&lt;/b&gt;" style="text;html=1;strokeColor=none;fillColor=none;align=center;verticalAlign=middle;whiteSpace=wrap;rounded=0;" vertex="1" parent="1">
          <mxGeometry x="384" y="374" width="60" height="30" as="geometry" />
        </mxCell>
      </root>
    </mxGraphModel>
  </diagram>
</mxfile>
